<?xml version="1.0" encoding="UTF-8"?>
<svg id="Capa_2" data-name="Capa 2" xmlns="http://www.w3.org/2000/svg" viewBox="0 0 513.94 317.39">
  <defs>
    <style>
      .cls-1 {
        fill: #fff;
      }
    </style>
  </defs>
  <g id="Capa_1-2" data-name="Capa 1">
    <g>
      <path class="cls-1" d="M24.54,314.47l-2.98.65-1.45-6.65c-.47-2.13-1.87-2.74-3.15-2.46-1.21.27-2.24,1.19-1.73,3.5l.36,1.65c.66,3-.77,5.5-3.52,6.1-2.8.61-5.15-1.06-5.83-4.15l-1.59-7.29,2.98-.65,1.46,6.67c.3,1.38,1.23,1.87,2.23,1.65.92-.2,1.55-1.04,1.25-2.41l-.34-1.56c-.89-4.06,1.07-6.55,3.98-7.18,2.96-.65,5.87.81,6.76,4.91l1.58,7.22Z"/>
      <path class="cls-1" d="M15.49,291.05l.84,5.49,4.6.27.56,3.69-18.02-1.51-.99-6.44,16.75-6.83.57,3.71-4.3,1.63ZM13.43,296.37l-.66-4.29-6.7,2.54.2,1.32,7.16.42Z"/>
      <path class="cls-1" d="M18.33,276l.78,7.94-17.51,1.72-.36-3.62,14.52-1.43-.43-4.32,2.99-.29Z"/>
      <path class="cls-1" d="M18.17,274.72l-3.05.14-.31-6.8c-.1-2.18-1.38-3.01-2.7-2.95-1.24.06-2.41.79-2.3,3.16l.08,1.69c.14,3.07-1.68,5.29-4.49,5.42-2.86.13-4.9-1.91-5.05-5.08l-.34-7.45,3.05-.14.31,6.82c.06,1.41.89,2.05,1.92,2,.94-.04,1.7-.76,1.64-2.17l-.07-1.59c-.19-4.15,2.15-6.28,5.13-6.41,3.02-.14,5.65,1.78,5.84,5.98l.34,7.38Z"/>
      <path class="cls-1" d="M13.2,250.09l-.1,5.56,4.49,1.04-.07,3.73-17.52-4.53.12-6.52,17.67-3.91-.07,3.75-4.52.88ZM10.27,254.99l.08-4.34-7.04,1.38-.02,1.34,6.99,1.63Z"/>
      <path class="cls-1" d="M18.11,238.91l-17.47-2.06.76-6.43,9.63-1.72.09-.75-8.96-3.91.76-6.43,17.47,2.06-.42,3.61-13.42-1.58-.11.96,9.46,4.07-.51,4.31-10.15,1.76-.11.93,13.42,1.58-.42,3.61Z"/>
      <path class="cls-1" d="M18.31,207.08l-1.09,5.45,4.23,1.82-.73,3.66-16.43-7.58,1.27-6.4,18.08-.71-.73,3.68-4.61.06ZM14.56,211.38l.85-4.26-7.17.1-.26,1.31,6.59,2.84Z"/>
      <path class="cls-1" d="M26.41,194.29c-1.41,5.18-6.26,7.9-11.28,6.53-5-1.36-7.76-6.15-6.35-11.33,1.18-4.34,4.89-7.08,9.23-6.77l-.97,3.58c-2.34.19-4.29,1.58-4.98,4.09-.86,3.17.89,6.03,4.08,6.9,3.15.86,6.1-.72,6.96-3.89.7-2.56-.34-4.83-2.36-6.14l.96-3.53c4.01,1.97,5.91,6.15,4.71,10.57Z"/>
      <path class="cls-1" d="M25.06,171.54l-2.19,6.09,7.42,2.66-1.23,3.42-16.56-5.94,1.23-3.42,6.45,2.31,2.19-6.09-6.45-2.31,1.23-3.42,16.56,5.94-1.23,3.42-7.42-2.66Z"/>
      <path class="cls-1" d="M34.22,157.9l-2.2,5.11,3.76,2.66-1.47,3.43-14.49-10.84,2.58-5.99,17.83,3.08-1.48,3.45-4.52-.9ZM29.65,161.32l1.72-3.99-7.04-1.39-.53,1.23,5.85,4.15Z"/>
      <path class="cls-1" d="M40.96,136.78l-3.07,5.7,6.94,3.73-1.72,3.2-15.49-8.33,1.72-3.2,6.03,3.25,3.07-5.7-6.03-3.24,1.72-3.2,15.49,8.33-1.72,3.2-6.94-3.73Z"/>
      <path class="cls-1" d="M56.95,125.46l-5.96,9.59-14.95-9.29,5.82-9.37,2.55,1.58-3.9,6.28,3.37,2.09,3.73-6,2.29,1.42-3.73,6,4.19,2.6,4.04-6.5,2.55,1.58Z"/>
      <path class="cls-1" d="M63.37,116.91c-3.14,4.36-8.64,5.19-12.86,2.14-4.2-3.04-5.1-8.49-1.95-12.84,2.64-3.65,7.07-4.91,11.03-3.09l-2.17,3c-2.25-.64-4.58-.03-6.1,2.08-1.92,2.66-1.29,5.95,1.39,7.89,2.64,1.91,5.97,1.47,7.89-1.19,1.55-2.15,1.38-4.64-.05-6.58l2.14-2.97c3.06,3.25,3.37,7.84.69,11.55Z"/>
      <path class="cls-1" d="M70.12,95.12l-4.18,4.95,6.02,5.08-2.35,2.78-13.45-11.35,2.35-2.78,5.24,4.42,4.18-4.95-5.23-4.42,2.35-2.78,13.45,11.35-2.35,2.78-6.02-5.09Z"/>
      <path class="cls-1" d="M83.52,85.63l-3.86,4,2.57,3.82-2.59,2.68-9.72-15.27,4.53-4.69,15.59,9.19-2.61,2.7-3.91-2.44ZM78.04,87.22l3.02-3.12-6.09-3.79-.93.96,4,5.96Z"/>
      <path class="cls-1" d="M98.97,71.31l-4.2,3.65,2.23,4.03-2.81,2.45-8.36-16.05,4.92-4.28,14.73,10.51-2.83,2.46-3.68-2.77ZM93.37,72.42l3.28-2.85-5.74-4.31-1.01.88,3.47,6.28Z"/>
      <path class="cls-1" d="M108.9,61.17l-2.93,2.23,3.77,4.97-2.9,2.2-10.64-14.01,5.96-4.53c3.18-2.41,6.42-1.9,8.46.79,1.35,1.77,1.59,3.83.61,5.72l6.52,3.74-3.04,2.31-5.81-3.42ZM100.9,56.73l3.45,4.54,2.56-1.94c1.81-1.38,1.69-2.97.77-4.18-.89-1.18-2.39-1.75-4.18-.39l-2.6,1.97Z"/>
      <path class="cls-1" d="M121.54,59.76l-8.16-12.11-3.08,2.07-1.68-2.49,9.17-6.18,1.68,2.49-3.08,2.07,8.16,12.1-3.02,2.03Z"/>
      <path class="cls-1" d="M138.78,48.9l-9.67,5.81-9.06-15.08,9.45-5.68,1.54,2.57-6.33,3.8,2.04,3.4,6.05-3.63,1.39,2.31-6.05,3.63,2.54,4.22,6.55-3.94,1.55,2.57Z"/>
      <path class="cls-1" d="M139.92,48.24l-1.42-2.7,6.03-3.16c1.93-1.01,2.15-2.53,1.54-3.69-.58-1.1-1.74-1.85-3.83-.75l-1.5.78c-2.72,1.43-5.51.71-6.82-1.78-1.33-2.54-.34-5.25,2.46-6.72l6.61-3.46,1.42,2.7-6.05,3.17c-1.25.65-1.48,1.68-1,2.59.44.83,1.41,1.22,2.66.57l1.41-.74c3.68-1.93,6.6-.7,7.98,1.94,1.41,2.68.77,5.87-2.95,7.82l-6.55,3.43Z"/>
      <path class="cls-1" d="M160.1,33.31l-5.07,2.27.96,4.5-3.4,1.52-3.32-17.78,5.95-2.66,11.03,14.33-3.42,1.53-2.72-3.72ZM154.43,32.74l3.96-1.77-4.23-5.79-1.22.55,1.49,7.01Z"/>
      <path class="cls-1" d="M167.85,34.84l-6.04-16.53,4.72-1.72,9.7,9.47.88-.32-4.19-11.48,3.2-1.17,6.04,16.53-4.8,1.75-9.61-9.5-.88.32,4.19,11.48-3.2,1.17Z"/>
      <path class="cls-1" d="M192.38,21.93l-5.34,1.54.32,4.59-3.58,1.03-.81-18.07,6.27-1.8,8.93,15.74-3.61,1.04-2.17-4.06ZM186.84,20.57l4.17-1.2-3.38-6.32-1.29.37.5,7.15Z"/>
      <path class="cls-1" d="M207.67,22.82l-7.77,1.79-3.95-17.15,3.54-.82,3.28,14.22,4.23-.97.67,2.93Z"/>
      <path class="cls-1" d="M209.59,22.26l-2.8-17.37,6.39-1.03,4.29,8.79.74-.12,1.31-9.69,6.39-1.03,2.8,17.37-3.59.58-2.15-13.34-.95.15-1.32,10.22-4.29.69-4.47-9.29-.93.15,2.15,13.34-3.59.58Z"/>
      <path class="cls-1" d="M242.57,18.06l-11.25.96-1.5-17.53,10.99-.94.26,2.99-7.36.63.34,3.95,7.04-.6.23,2.69-7.04.6.42,4.91,7.62-.65.26,2.99Z"/>
      <path class="cls-1" d="M244.58,17.9l-.35-17.59,5.02-.1,6.11,12.1.94-.02-.25-12.22,3.4-.07.35,17.59-5.11.1-6.02-12.1-.94.02.25,12.22-3.4.07Z"/>
      <path class="cls-1" d="M265.22,17.84l.62-14.58-3.7-.16.13-3,11.04.47-.13,3-3.7-.16-.62,14.58-3.63-.16Z"/>
      <path class="cls-1" d="M285.54,19.35l-11.23-1.07,1.68-17.52,10.98,1.05-.29,2.99-7.36-.7-.38,3.95,7.03.67-.26,2.69-7.03-.67-.47,4.9,7.61.73-.29,2.99Z"/>
      <path class="cls-1" d="M300.85,22.15c-5.28-.99-8.38-5.61-7.42-10.72.96-5.1,5.51-8.23,10.79-7.24,4.43.83,7.45,4.31,7.5,8.66l-3.64-.68c-.38-2.31-1.92-4.16-4.48-4.64-3.23-.61-5.94,1.37-6.55,4.62-.6,3.21,1.21,6.03,4.44,6.63,2.61.49,4.79-.72,5.93-2.85l3.6.68c-1.64,4.16-5.66,6.39-10.16,5.54Z"/>
      <path class="cls-1" d="M319.94,26.55c-5.21-1.43-7.93-6.29-6.56-11.31,1.37-5,6.19-7.74,11.39-6.32,5.23,1.44,7.95,6.25,6.57,11.25-1.38,5.02-6.18,7.82-11.41,6.38ZM320.85,23.25c3.19.88,6.05-.87,6.92-4.01.88-3.19-.7-6.15-3.89-7.03-3.19-.88-6.08.86-6.95,4.05-.86,3.15.73,6.11,3.92,6.99Z"/>
      <path class="cls-1" d="M330.89,29.34l5.95-16.55,4.72,1.7,1.38,13.48.88.32,4.14-11.5,3.2,1.15-5.96,16.55-4.81-1.73-1.29-13.45-.88-.32-4.14,11.5-3.2-1.15Z"/>
      <path class="cls-1" d="M352.32,37.55l7.12-16.1,3.33,1.47-7.12,16.1-3.33-1.47Z"/>
      <path class="cls-1" d="M358.27,40.1l7.93-15.71,4.48,2.26-.27,13.56.84.42,5.51-10.91,3.04,1.53-7.93,15.71-4.57-2.3.35-13.51-.84-.42-5.51,10.92-3.04-1.53Z"/>
      <path class="cls-1" d="M381.41,53.01c-4.63-2.81-5.9-8.22-3.21-12.65,2.69-4.43,8.03-5.8,12.6-3.02,3.59,2.18,5.34,6.16,4.24,10.18l-3.31-2.01c.32-1.97-.58-4.11-2.58-5.33-2.81-1.71-6.05-.79-7.82,2.11-1.74,2.87-1.07,6.24,1.81,7.99,2.3,1.4,4.86,1.12,6.69-.44l-4.23-2.57,1.38-2.26,7.2,4.37c-.03.09-.29.57-.36.69-2.63,4.33-8.08,5.57-12.41,2.94Z"/>
      <path class="cls-1" d="M400.53,57.79l-3-2.14-3.63,5.08-2.96-2.12,10.23-14.31,6.09,4.35c3.24,2.32,3.72,5.57,1.75,8.32-1.3,1.81-3.19,2.65-5.29,2.27l-1.64,7.33-3.11-2.22,1.55-6.56ZM402.41,48.83l-3.31,4.64,2.61,1.87c1.85,1.32,3.33.74,4.22-.5.86-1.2.96-2.8-.87-4.11l-2.65-1.9Z"/>
      <path class="cls-1" d="M412.35,74.89l-8.77-7.11,11.09-13.67,8.57,6.95-1.89,2.33-5.74-4.66-2.5,3.08,5.49,4.45-1.7,2.1-5.49-4.45-3.1,3.83,5.94,4.82-1.89,2.33Z"/>
      <path class="cls-1" d="M413.91,76.18l11.93-12.92,4.22,3.9c4.38,4.04,4.49,9.03.99,12.82-3.55,3.84-8.57,4.12-12.91.12l-4.24-3.91ZM426.25,68.04l-7.51,8.13,1.58,1.46c3.01,2.78,5.93,2.15,8.03-.12,2.1-2.27,2.5-5.23-.54-8.03l-1.57-1.45Z"/>
      <path class="cls-1" d="M426.56,88.15l12.57-12.3,2.54,2.6-12.57,12.31-2.54-2.6Z"/>
      <path class="cls-1" d="M438.69,101.19l-7.55-8.39,13.08-11.77,7.38,8.19-2.23,2.01-4.94-5.49-2.95,2.65,4.72,5.25-2.01,1.81-4.72-5.25-3.66,3.29,5.12,5.68-2.23,2.01Z"/>
      <path class="cls-1" d="M440.03,102.69l13.82-10.9,3.11,3.94-5.97,12.18.58.74,9.6-7.57,2.11,2.67-13.82,10.9-3.17-4.02,6.02-12.1-.58-.74-9.6,7.57-2.11-2.67Z"/>
      <path class="cls-1" d="M452.53,119.11l11.99-8.31-2.11-3.05,2.47-1.71,6.29,9.08-2.47,1.71-2.11-3.05-11.99,8.31-2.07-2.99Z"/>
      <path class="cls-1" d="M463.61,136.22l-5.93-9.6,14.96-9.25,5.8,9.38-2.55,1.58-3.89-6.29-3.37,2.09,3.71,6-2.29,1.42-3.71-6-4.19,2.59,4.02,6.5-2.55,1.58Z"/>
      <path class="cls-1" d="M464.29,137.35l2.68-1.45,3.23,5.99c1.04,1.92,2.55,2.11,3.71,1.49,1.09-.59,1.82-1.76.7-3.84l-.8-1.49c-1.46-2.71-.78-5.5,1.7-6.84,2.52-1.36,5.25-.41,6.75,2.38l3.55,6.57-2.68,1.45-3.25-6.01c-.67-1.24-1.69-1.46-2.6-.97-.83.45-1.21,1.42-.54,2.66l.76,1.4c1.97,3.65.79,6.59-1.83,8-2.66,1.44-5.86.85-7.86-2.85l-3.51-6.5Z"/>
      <path class="cls-1" d="M473.64,155.22l16.14-7,2.29,5.27c2.37,5.47.46,10.08-4.28,12.13-4.8,2.08-9.51.31-11.86-5.11l-2.3-5.3ZM488.22,152.76l-10.16,4.41.86,1.98c1.63,3.77,4.55,4.37,7.4,3.13,2.84-1.23,4.4-3.77,2.75-7.56l-.85-1.96Z"/>
      <path class="cls-1" d="M484.19,181.69l-3.83-10.62,16.55-5.97,3.74,10.37-2.83,1.02-2.51-6.95-3.73,1.34,2.39,6.64-2.54.92-2.39-6.64-4.63,1.67,2.59,7.19-2.82,1.02Z"/>
      <path class="cls-1" d="M488.21,196.75c-1.36-5.2,1.48-9.97,6.52-11.29,5.01-1.32,9.79,1.46,11.16,6.65,1.14,4.36-.71,8.58-4.62,10.48l-.94-3.59c1.93-1.33,2.94-3.51,2.27-6.03-.83-3.18-3.78-4.78-6.98-3.94-3.15.83-4.93,3.67-4.1,6.85.67,2.56,2.71,4.02,5.11,4.14l.93,3.54c-4.46.3-8.19-2.39-9.35-6.81Z"/>
      <path class="cls-1" d="M497.22,215.24l-1.02-5.47-4.6-.12-.68-3.67,18.07.93,1.19,6.41-16.53,7.38-.69-3.69,4.25-1.77ZM499.1,209.86l.79,4.27,6.62-2.76-.25-1.32-7.17-.19Z"/>
      <path class="cls-1" d="M494.88,230.37l-1.04-7.91,17.44-2.29.47,3.6-14.46,1.9.57,4.3-2.98.39Z"/>
      <path class="cls-1" d="M495.08,232.6l17.52-1.67.35,3.62-17.52,1.67-.34-3.62Z"/>
      <path class="cls-1" d="M495.76,239.05l17.58-.79.26,5.74c.27,5.96-3.16,9.59-8.32,9.82-5.23.24-9-3.09-9.26-9l-.26-5.77ZM510.27,241.94l-11.07.5.1,2.16c.19,4.1,2.7,5.71,5.79,5.57,3.1-.14,5.46-1.96,5.27-6.09l-.1-2.13Z"/>
      <path class="cls-1" d="M500.73,264.77l.11-5.56-4.48-1.05.08-3.73,17.5,4.58-.13,6.52-17.68,3.86.08-3.75,4.52-.87ZM503.67,259.88l-.09,4.34,7.04-1.36.03-1.34-6.98-1.64Z"/>
      <path class="cls-1" d="M496.03,271.1l17.52,1.58-.52,5.72c-.54,5.94-4.42,9.07-9.56,8.61-5.21-.47-8.49-4.28-7.96-10.16l.52-5.75ZM510.01,275.92l-11.03-1-.19,2.15c-.37,4.09,1.91,6.01,4.99,6.29,3.08.28,5.67-1.21,6.04-5.32l.19-2.13Z"/>
    </g>
  </g>
</svg>